<svg role="img" viewBox="0 0 24 24" xmlns="http://www.w3.org/2000/svg" fill="#ffffff"><path d="M3.941 12.256c-.088.054-.152.027-.152-.027 0-.082.109-.191.273-.191.082 0 .164.027.191.082.027.027.027.054.027.082 0 .054-.191.109-.339.054zm-.547-.492c-.109.055-.164.027-.164-.027 0-.082.082-.164.219-.164.082 0 .164.027.191.082.027.027.027.054.027.082 0 .054-.136.082-.273.027zm9.82-6.539c-3.613 0-6.156 1.504-6.156 3.996 0 2.137 1.23 3.332 2.953 3.941.492.219.82.383.82.656 0 .3-.328.438-.82.438-.82 0-1.776-.274-2.566-.574l-.355 1.668c.984.355 2.074.547 3.109.547 2.457 0 4.23-1.203 4.23-3.824 0-2.082-1.23-3.277-3.109-3.996-.52-.219-.875-.438-.875-.711 0-.273.355-.438.766-.438.711 0 1.504.164 2.266.492l.328-1.613c-.82-.274-1.75-.492-2.79-.492zm8.211 1.313c.191 0 .301.082.301.3 0 .22-.11 1.504-.11 3.25 0 2.328 1.012 3.606 2.898 3.606 1.586 0 2.734-.902 2.734-2.738 0-1.75-.93-2.734-2.352-2.734-.875 0-1.531.3-1.914.711l-.328-1.613c.465-.3 1.148-.492 1.914-.492 2.539 0 4.312 1.477 4.312 3.996 0 2.738-2.074 4.366-4.449 4.366-2.02 0-4.066-1.066-4.066-4.148 0-1.996.11-3.523.11-3.66.027-.22.136-.327.355-.327.191 0 .3.082.3.3l-.055.081z"/></svg>
