<svg role="img" viewBox="0 0 24 24" xmlns="http://www.w3.org/2000/svg" fill="#ffffff"><path d="M12 0C5.373 0 0 5.373 0 12s5.373 12 12 12 12-5.373 12-12S18.627 0 12 0zm6.455 16.82c-.279.692-.815 1.179-1.574 1.475-1.006.394-2.246.587-3.693.587-1.902 0-3.846-.332-5.7-.963V5.978l.695.584c.664.556 1.525.919 2.641 1.066.816.109 1.906.163 3.269.163 1.806 0 3.295.163 4.384.49.471.141.638.228.638.588 0 .285-.25.534-.49.75-.164.141-.414.272-.717.38-.381.141-.923.272-1.646.38-.762.108-1.675.163-2.715.163h-.13c-2.694 0-4.702-.163-6.083-.49v4.142c2.018.436 4.766.653 8.245.653 1.489 0 2.96-.109 4.328-.33.543-.087 1.033-.25 1.467-.488.468-.25.772-.531.926-.852.163-.326.25-.783.25-1.362 0-1.387-.566-2.36-1.683-2.887-.543-.25-1.25-.446-2.096-.575-1.033-.152-2.328-.228-3.857-.228-1.453 0-2.66.087-3.585.25-1.033.185-1.74.435-2.175.728-.326.217-.543.478-.652.782-.109.304-.163.63-.163.978 0 .565.109 1.135.326 1.683.087.228.066.37-.109.467-.163.098-.5.043-.923-.152-.434-.196-.804-.478-1.12-.837-.206-.24-.407-.522-.597-.843-.283-.478-.424-1.012-.424-1.588 0-.631.152-1.206.48-1.713.315-.5.783-.924 1.424-1.262.63-.337 1.413-.587 2.326-.772 1.033-.206 2.26-.315 3.683-.315 2.076 0 3.75.174 5.056.522 1.25.337 2.18.826 2.826 1.467.63.63.945 1.52.945 2.663 0 1.133-.315 2.01-.945 2.652z"/></svg>
