<svg role="img" viewBox="0 0 24 24" xmlns="http://www.w3.org/2000/svg" fill="#ffffff"><path d="M7.422 12c0-2.502 2.028-4.584 4.578-4.584s4.578 2.082 4.578 4.584-2.028 4.584-4.578 4.584S7.422 14.502 7.422 12zm11.958 0c0-4.074-3.306-7.422-7.38-7.422S4.62 7.926 4.62 12s3.306 7.422 7.38 7.422 7.38-3.348 7.38-7.422zM12 0C5.373 0 0 5.373 0 12s5.373 12 12 12 12-5.373 12-12S18.627 0 12 0zm0 20.754c-4.836 0-8.754-3.918-8.754-8.754S7.164 3.246 12 3.246s8.754 3.918 8.754 8.754-3.918 8.754-8.754 8.754z"/></svg>
