<svg role="img" viewBox="0 0 24 24" xmlns="http://www.w3.org/2000/svg" fill="#ffffff"><path d="M12 0C5.4 0 0 5.4 0 12s5.4 12 12 12 12-5.4 12-12S18.66 0 12 0zm5.521 17.34c-.24.383-.734.5-1.117.26-2.814-1.74-6.342-2.11-10.497-1.14-.427.102-.852-.16-.954-.586-.102-.427.16-.852.587-.955 4.566-1.08 8.478-.63 11.64 1.29.386.23.512.73.34 1.13zm1.488-3.254c-.28.447-.86.61-1.324.33-3.207-1.98-8.092-2.54-11.87-1.38-.476.15-1.01-.13-1.16-.606-.15-.477.13-1.01.606-1.16 4.254-1.31 9.63-.7 13.27 1.56.458.28.61.876.33 1.324l.148-.068zm.11-3.34c-3.852-2.29-10.19-2.5-13.86-1.38-.57.17-1.17-.16-1.34-.73-.17-.57.16-1.17.73-1.34 4.16-1.26 11.14-1.02 15.5 1.53.52.31.69 1 .38 1.52-.31.52-1 .69-1.52.38l.07.03z"/></svg>
